<svg id="Capa_1" enable-background="new 0 0 512 512" height="512" viewBox="0 0 512 512" width="512" xmlns="http://www.w3.org/2000/svg"><g><path d="m375.799 511.995h-239.598c-19.6 0-35.488-15.889-35.488-35.488v-441.014c0-19.6 15.889-35.488 35.488-35.488h239.598c19.6 0 35.488 15.889 35.488 35.488v441.014c.001 19.6-15.888 35.488-35.488 35.488z" fill="#8d9ca8"/><path d="m411.285 35.498v441.005c0 19.607-15.89 35.498-35.487 35.498h-20.596c19.597 0 35.487-15.89 35.487-35.498v-441.005c0-19.608-15.89-35.498-35.487-35.498h20.596c19.597 0 35.487 15.89 35.487 35.498z" fill="#7a8c98"/><g><path d="m364.068 31.296h-41.867c-3.897 0-7.466 2.181-9.244 5.649l-12.077 23.556c-2.739 5.345-7.497 8.578-12.615 8.578h-64.528c-5.118 0-9.876-3.234-12.615-8.578l-12.077-23.556c-1.778-3.468-5.347-5.649-9.244-5.649h-41.868c-7.579 0-13.717 6.138-13.717 13.707v421.995c0 7.569 6.138 13.707 13.717 13.707h216.136c7.579 0 13.717-6.138 13.717-13.707v-421.995c-.001-7.569-6.138-13.707-13.718-13.707z" fill="#f2fbff"/></g><g><path d="m364.068 31.296h-20.596c7.579 0 13.717 6.138 13.717 13.707v421.995c0 7.569-6.138 13.707-13.717 13.707h20.596c7.579 0 13.717-6.138 13.717-13.707v-421.995c0-7.569-6.137-13.707-13.717-13.707z" fill="#dff6fd"/></g><g><g><g><path d="m62.857 291.899c-1.313 0-2.644-.335-3.862-1.04-12.443-7.202-20.173-20.598-20.173-34.961 0-14.16 7.566-27.46 19.744-34.71 3.668-2.182 8.406-.98 10.588 2.686 2.182 3.665.979 8.405-2.686 10.587-7.524 4.479-12.199 12.694-12.199 21.437 0 8.869 4.775 17.143 12.463 21.592 3.692 2.137 4.952 6.862 2.816 10.553-1.43 2.475-4.024 3.856-6.691 3.856z" fill="#8d9ca8"/></g><g><path d="m41.401 314.93c-1.313 0-2.643-.335-3.862-1.04-20.671-11.963-33.512-34.216-33.512-58.076 0-23.521 12.568-45.613 32.8-57.657 3.665-2.183 8.405-.981 10.587 2.685s.98 8.406-2.686 10.588c-15.577 9.273-25.254 26.28-25.254 44.384 0 18.365 9.887 35.495 25.803 44.706 3.692 2.137 4.952 6.862 2.816 10.554-1.431 2.475-4.025 3.856-6.692 3.856z" fill="#8d9ca8"/></g></g><g><g><path d="m449.144 291.899c-2.666 0-5.26-1.382-6.692-3.856-2.137-3.692-.876-8.416 2.816-10.553 7.687-4.449 12.462-12.723 12.462-21.592 0-8.743-4.674-16.958-12.198-21.437-3.666-2.181-4.868-6.922-2.686-10.587 2.181-3.667 6.922-4.868 10.587-2.686 12.179 7.249 19.744 20.549 19.744 34.71 0 14.364-7.73 27.76-20.172 34.961-1.218.706-2.548 1.04-3.861 1.04z" fill="#8d9ca8"/></g><g><path d="m470.6 314.93c-2.666 0-5.26-1.382-6.692-3.856-2.137-3.692-.876-8.416 2.816-10.554 15.915-9.211 25.802-26.342 25.802-44.706 0-18.104-9.677-35.111-25.254-44.384-3.665-2.182-4.867-6.922-2.685-10.588 2.181-3.666 6.923-4.864 10.588-2.685 20.231 12.044 32.799 34.138 32.799 57.657 0 23.86-12.84 46.112-33.511 58.076-1.22.705-2.55 1.04-3.863 1.04z" fill="#8d9ca8"/></g></g></g><g><circle cx="205.223" cy="342.166" fill="#d1f19e" r="28.224"/><circle cx="306.778" cy="342.166" fill="#fe93bb" r="28.224"/></g><g><path d="m233.448 342.164c0 15.591-12.636 28.227-28.227 28.227-10.463 0-19.597-5.695-24.448-14.16 2.121.525 4.346.793 6.632.793 15.581 0 28.217-12.636 28.217-28.227 0-5.128-1.37-9.927-3.769-14.067 12.388 2.976 21.595 14.139 21.595 27.434z" fill="#bbec6c"/><path d="m334.997 342.164c0 15.591-12.636 28.227-28.217 28.227-10.463 0-19.608-5.695-24.458-14.16 2.121.525 4.346.793 6.632.793 15.591 0 28.227-12.636 28.227-28.227 0-5.128-1.369-9.927-3.769-14.067 12.378 2.976 21.585 14.139 21.585 27.434z" fill="#fe76a8"/></g><g><path d="m328.59 214.2c0 26.535-14.238 49.745-35.491 62.407-1.37.816-5.458-1.252-6.885-.525-9.877 5.031-18.37 8.221-30.215 8.221-12.134 0-21.392-1.376-31.445-6.64-1.176-.616-4.514-.377-5.651-1.054-21.255-12.661-35.494-35.872-35.494-62.409 0-40.091 32.5-72.59 72.59-72.59s72.591 32.499 72.591 72.59z" fill="#c8effe"/><path d="m328.592 214.195c0 40.095-32.497 72.592-72.592 72.592-16.672 0-32.019-5.622-44.274-15.065 7.5 2.627 15.576 4.059 23.977 4.059 40.095 0 72.592-32.497 72.592-72.592 0-23.412-11.093-44.241-28.307-57.515 28.307 9.899 48.604 36.838 48.604 68.521z" fill="#99e6fc"/><path d="m293.094 276.6c-10.858 6.474-23.544 10.186-37.098 10.186s-26.231-3.713-37.088-10.186c3.321-7.248 8.703-13.348 15.391-17.565 2.155-1.353 3.89-3.218 5.093-5.382 1.194-2.164 1.847-4.627 1.847-7.173 0-4.627-2.136-9.03-5.849-11.8-8.433-6.287-13.89-16.343-13.89-27.667 0-19.869 16.781-35.811 36.949-34.421 16.8 1.166 30.493 14.626 31.921 31.398 1.063 12.5-4.543 23.749-13.647 30.596-1.875 1.409-3.358 3.209-4.384 5.242-1.017 2.043-1.576 4.31-1.576 6.651 0 5.102 2.612 9.841 6.931 12.556 6.697 4.217 12.08 10.317 15.4 17.565z" fill="#8d9ca8"/><path d="m293.095 276.595c-10.865 6.48-23.553 10.192-37.099 10.192-13.557 0-26.234-3.712-37.088-10.192.391-.847.803-1.672 1.248-2.486 5.015 1.096 10.214 1.672 15.543 1.672 16.704 0 32.095-5.644 44.36-15.13 5.601 4.102 10.117 9.583 13.036 15.944z" fill="#7a8c98"/></g></g></svg>